<mxfile>
    <diagram id="PHw8T9KgEreCAygIfo8J" name="ページ1">
        <mxGraphModel dx="1064" dy="606" grid="1" gridSize="10" guides="1" tooltips="1" connect="1" arrows="1" fold="1" page="1" pageScale="1" pageWidth="827" pageHeight="1169" math="0" shadow="0">
            <root>
                <mxCell id="0"/>
                <mxCell id="1" parent="0"/>
                <mxCell id="10" style="edgeStyle=orthogonalEdgeStyle;rounded=0;orthogonalLoop=1;jettySize=auto;html=1;entryX=0;entryY=0.5;entryDx=0;entryDy=0;" edge="1" parent="1" source="2" target="3">
                    <mxGeometry relative="1" as="geometry"/>
                </mxCell>
                <mxCell id="2" value="アプリA" style="rounded=0;whiteSpace=wrap;html=1;" vertex="1" parent="1">
                    <mxGeometry x="240" y="320" width="120" height="60" as="geometry"/>
                </mxCell>
                <mxCell id="11" style="edgeStyle=orthogonalEdgeStyle;rounded=0;orthogonalLoop=1;jettySize=auto;html=1;entryX=0;entryY=0.5;entryDx=0;entryDy=0;" edge="1" parent="1" source="3" target="4">
                    <mxGeometry relative="1" as="geometry"/>
                </mxCell>
                <mxCell id="3" value="アプリB" style="rounded=0;whiteSpace=wrap;html=1;" vertex="1" parent="1">
                    <mxGeometry x="450" y="320" width="120" height="60" as="geometry"/>
                </mxCell>
                <mxCell id="4" value="アプリC" style="rounded=0;whiteSpace=wrap;html=1;" vertex="1" parent="1">
                    <mxGeometry x="650" y="320" width="120" height="60" as="geometry"/>
                </mxCell>
                <mxCell id="5" value="アプリ" style="rounded=0;whiteSpace=wrap;html=1;" vertex="1" parent="1">
                    <mxGeometry x="240" y="80" width="530" height="60" as="geometry"/>
                </mxCell>
                <mxCell id="8" style="edgeStyle=orthogonalEdgeStyle;rounded=0;orthogonalLoop=1;jettySize=auto;html=1;entryX=0;entryY=0.5;entryDx=0;entryDy=0;" edge="1" parent="1" source="6" target="5">
                    <mxGeometry relative="1" as="geometry"/>
                </mxCell>
                <mxCell id="6" value="ユーザー" style="shape=umlActor;verticalLabelPosition=bottom;verticalAlign=top;html=1;outlineConnect=0;" vertex="1" parent="1">
                    <mxGeometry x="70" y="79" width="30" height="60" as="geometry"/>
                </mxCell>
                <mxCell id="9" style="edgeStyle=orthogonalEdgeStyle;rounded=0;orthogonalLoop=1;jettySize=auto;html=1;entryX=0;entryY=0.5;entryDx=0;entryDy=0;" edge="1" parent="1" source="7" target="2">
                    <mxGeometry relative="1" as="geometry"/>
                </mxCell>
                <mxCell id="7" value="ユーザー" style="shape=umlActor;verticalLabelPosition=bottom;verticalAlign=top;html=1;outlineConnect=0;" vertex="1" parent="1">
                    <mxGeometry x="70" y="320" width="30" height="60" as="geometry"/>
                </mxCell>
                <mxCell id="12" value="" style="shape=flexArrow;endArrow=classic;html=1;fillColor=#f8cecc;strokeColor=#b85450;" edge="1" parent="1">
                    <mxGeometry width="50" height="50" relative="1" as="geometry">
                        <mxPoint x="720" y="130" as="sourcePoint"/>
                        <mxPoint x="720" y="170" as="targetPoint"/>
                    </mxGeometry>
                </mxCell>
                <mxCell id="13" value="ログ出力" style="text;html=1;strokeColor=none;fillColor=none;align=center;verticalAlign=middle;whiteSpace=wrap;rounded=0;" vertex="1" parent="1">
                    <mxGeometry x="680" y="180" width="80" height="20" as="geometry"/>
                </mxCell>
                <mxCell id="14" value="" style="shape=flexArrow;endArrow=classic;html=1;fillColor=#f8cecc;strokeColor=#b85450;" edge="1" parent="1">
                    <mxGeometry width="50" height="50" relative="1" as="geometry">
                        <mxPoint x="714" y="370" as="sourcePoint"/>
                        <mxPoint x="714" y="410" as="targetPoint"/>
                    </mxGeometry>
                </mxCell>
                <mxCell id="15" value="ログ出力" style="text;html=1;strokeColor=none;fillColor=none;align=center;verticalAlign=middle;whiteSpace=wrap;rounded=0;" vertex="1" parent="1">
                    <mxGeometry x="674" y="420" width="80" height="20" as="geometry"/>
                </mxCell>
                <mxCell id="16" value="" style="shape=flexArrow;endArrow=classic;html=1;fillColor=#f8cecc;strokeColor=#b85450;" edge="1" parent="1">
                    <mxGeometry width="50" height="50" relative="1" as="geometry">
                        <mxPoint x="510" y="370" as="sourcePoint"/>
                        <mxPoint x="510" y="410" as="targetPoint"/>
                    </mxGeometry>
                </mxCell>
                <mxCell id="17" value="ログ出力" style="text;html=1;strokeColor=none;fillColor=none;align=center;verticalAlign=middle;whiteSpace=wrap;rounded=0;" vertex="1" parent="1">
                    <mxGeometry x="470" y="420" width="80" height="20" as="geometry"/>
                </mxCell>
                <mxCell id="18" value="" style="shape=flexArrow;endArrow=classic;html=1;fillColor=#f8cecc;strokeColor=#b85450;" edge="1" parent="1">
                    <mxGeometry width="50" height="50" relative="1" as="geometry">
                        <mxPoint x="300" y="370" as="sourcePoint"/>
                        <mxPoint x="300" y="410" as="targetPoint"/>
                    </mxGeometry>
                </mxCell>
                <mxCell id="19" value="ログ出力" style="text;html=1;strokeColor=none;fillColor=none;align=center;verticalAlign=middle;whiteSpace=wrap;rounded=0;" vertex="1" parent="1">
                    <mxGeometry x="260" y="420" width="80" height="20" as="geometry"/>
                </mxCell>
            </root>
        </mxGraphModel>
    </diagram>
</mxfile>